<?xml version="1.0" standalone="no"?><!DOCTYPE svg PUBLIC "-//W3C//DTD SVG 1.1//EN" "http://www.w3.org/Graphics/SVG/1.1/DTD/svg11.dtd"><svg t="1527316403635" class="icon" style="" viewBox="0 0 1024 1024" version="1.1" xmlns="http://www.w3.org/2000/svg" p-id="9228" xmlns:xlink="http://www.w3.org/1999/xlink" width="24" height="24"><defs><style type="text/css"></style></defs><path d="M875 773.2 613.8 512l261.2-261.2c28.2-28.2 28.2-73.6 0-101.8-28.2-28.2-73.6-28.2-101.8 0L512 410.2 250.8 149c-28.2-28.2-73.6-28.2-101.8 0-28.2 28.2-28.2 73.6 0 101.8L410.2 512 149 773.2c-28.2 28.2-28.2 73.6 0 101.8 28.2 28.2 73.6 28.2 101.8 0L512 613.8l261.2 261.2c28.2 28.2 73.6 28.2 101.8 0C903 846.8 903 801.2 875 773.2z" p-id="9229" fill="#dbdbdb"></path></svg>