<?xml version="1.0" standalone="no"?><!DOCTYPE svg PUBLIC "-//W3C//DTD SVG 1.1//EN" "http://www.w3.org/Graphics/SVG/1.1/DTD/svg11.dtd"><svg t="1528424809235" class="icon" style="" viewBox="0 0 1024 1024" version="1.1" xmlns="http://www.w3.org/2000/svg" p-id="4646" xmlns:xlink="http://www.w3.org/1999/xlink" width="20" height="20"><defs><style type="text/css"></style></defs><path d="M231.126268 929.246509 231.126268 745.218521c-129.22299-61.247332-202.903425-168.162987-202.903425-295.47435 0-195.723534 216.17945-354.975628 481.925739-354.975628s481.925739 159.252095 481.925739 354.975628c0 195.738586-216.17945 355.005733-481.925739 355.005733-29.517331 0-59.320653-2.062149-88.868088-6.126238L231.126268 929.246509zM510.148582 145.4944c-237.76428 0-431.199882 136.478142-431.199882 304.249772 0 112.695693 66.620961 203.550669 187.610407 255.857004l15.30807 6.592856 0 120.67335 127.175893-87.377922 9.904336 1.550375c30.209731 4.636072 60.901132 6.984213 91.201176 6.984213 237.76428 0 431.18483-136.508246 431.18483-304.279877S747.912862 145.4944 510.148582 145.4944z" p-id="4647" fill="#8a8a8a"></path><path d="M615.559018 421.972894l106.599559 0 0 106.659768-106.599559 0 0-106.659768Z" p-id="4648" fill="#8a8a8a"></path><path d="M451.851477 421.972894l106.599559 0 0 106.659768-106.599559 0 0-106.659768Z" p-id="4649" fill="#8a8a8a"></path><path d="M288.174041 421.972894l106.614611 0 0 106.659768-106.614611 0 0-106.659768Z" p-id="4650" fill="#8a8a8a"></path></svg>