<?xml version="1.0" standalone="no"?><!DOCTYPE svg PUBLIC "-//W3C//DTD SVG 1.1//EN" "http://www.w3.org/Graphics/SVG/1.1/DTD/svg11.dtd"><svg t="1527058638626" class="icon" style="" viewBox="0 0 1024 1024" version="1.1" xmlns="http://www.w3.org/2000/svg" p-id="5896" xmlns:xlink="http://www.w3.org/1999/xlink" width="22" height="22"><defs><style type="text/css"></style></defs><path d="M390.498762 956.267363c-26.037003 0-52.830229-10.541077-73.402777-31.312147L91.347474 697.025017c-18.393929-18.571984-29.217439-42.701544-30.476105-67.942415-1.311879-26.295899 7.80271-50.520627 25.66452-68.210521l470.537679-466.034109c6.025227-5.968945 22.027689-21.824051 53.360302-26.062586l0.921999-0.124843 0.930185-0.057305c82.877569-5.115508 206.876698-4.074805 270.692119 0.106424 22.200628 1.454118 43.394323 3.999081 58.677401 18.9547 15.130605 14.806217 18.73469 35.790134 19.489889 62.739927 1.898233 67.747987-3.523243 192.490036-11.604292 266.948864l-0.106424 0.969071-0.179078 0.958838c-4.859681 26.074865-18.681478 39.245839-24.581862 44.86993-0.37146 0.354064-0.715291 0.679475-1.021259 0.981351L453.194686 931.076634c-17.028838 16.866133-39.564088 25.190729-62.695924 25.190729z m225.947032-836.667428c-13.751189 2.061962-19.748786 8.005324-23.361057 11.58485l-0.082888 0.082888L122.538871 597.225033c-7.391341 7.320733-11.144828 17.72878-10.56666 29.308513 0.630357 12.635785 6.215562 24.88169 15.727193 34.485419L353.447914 888.949164c18.675338 18.856463 47.864124 21.499663 63.742767 5.774517l470.460931-465.957361c0.517793-0.512676 1.095961-1.066285 1.726318-1.665942 3.697205-3.524267 7.518231-7.164167 9.41237-16.349363 8.638751-80.329537 12.843516-200.679555 11.21032-258.922051-0.671289-23.953551-3.988848-27.467585-4.130064-27.605731-0.705058-0.690732-4.684696-3.055592-26.237571-4.467755-61.987796-4.061502-182.260044-5.080715-263.187191-0.155543z" fill="#8a8a8a" p-id="5897"></path><path d="M696.230931 380.532783a15.410991 15.410991 0 0 1-3.415796-0.384763c-15.97688-3.63069-30.540573-11.727089-42.11519-23.414269-16.21838-16.374946-25.089421-38.08541-24.977881-61.131289s9.18929-44.670385 25.564236-60.887743c16.272615-16.117073 37.818327-24.978904 60.70457-24.978904l0.426719 0.001023c23.045879 0.110517 44.669362 9.18929 60.887742 25.564236 16.21838 16.374946 25.089421 38.08541 24.977881 61.131289-0.110517 23.046902-9.18929 44.670385-25.564235 60.888765-6.024204 5.963829-15.743566 5.918803-21.707395-0.1054-5.965875-6.02318-5.918803-15.741519 0.104377-21.707395 10.549264-10.446933 16.397459-24.3772 16.46909-39.22435 0.071631-14.84715-5.643534-28.832675-16.090466-39.380915-10.447956-10.549264-24.3772-16.397459-39.22435-16.46909-14.806217-0.080841-28.832675 5.64251-39.379893 16.090466-10.549264 10.447956-16.397459 24.3772-16.46909 39.22435-0.071631 14.84715 5.643534 28.832675 16.090467 39.380916 7.459902 7.531534 16.833387 12.747325 27.107381 15.081487 8.266267 1.877767 13.44522 10.103102 11.56643 18.369369-1.61887 7.122211-7.946996 11.952216-14.954597 11.952217z" fill="#8a8a8a" p-id="5898"></path></svg>