<?xml version="1.0" standalone="no"?><!DOCTYPE svg PUBLIC "-//W3C//DTD SVG 1.1//EN" "http://www.w3.org/Graphics/SVG/1.1/DTD/svg11.dtd"><svg t="1527838323018" class="icon" style="" viewBox="0 0 1024 1024" version="1.1" xmlns="http://www.w3.org/2000/svg" p-id="6194" xmlns:xlink="http://www.w3.org/1999/xlink" width="32" height="32"><defs><style type="text/css"></style></defs><path d="M212.056674 462.956004l-25.76685-6.630001c5.477758-21.287839 10.293437-56.253188 14.032598-70.64292l-70.365604-9.80225c-15.418154-2.210341-28.716019-10.183943-37.494962-22.460548-8.486278-11.866259-11.661597-26.335808-8.939603-40.742936 5.477758-29.6636 34.912138-50.299593 65.60723-45.948495l81.83789 11.398608c0.629333-3.333932 1.255597-6.667863 1.87572-9.998725 3.835352-20.37198 7.077186-37.106106 10.205433-52.692083 3.855818-18.856463 9.085936-33.541931 16.470113-46.26265 8.659217-14.862499 20.832468-23.550369 33.410947-23.855314 10.484795-0.255827 19.850094 5.142114 26.377764 15.19405 6.198166 9.400091 11.363815 19.931958 16.360619 30.117948 1.25048 2.549056 2.50096 5.099135 3.767813 7.630794 2.6432 5.297656 4.332678 9.543354 5.824659 13.288654 2.568499 6.451946 3.984754 10.005888 8.716522 15.386432 3.040243 3.455705 6.476505 5.201465 11.848862 5.9055 0.187265-0.052189 0.37453-0.105401 0.561795-0.157589l0.511653-0.144286c26.849508-7.944949 55.682183-13.601786 85.693708-16.812921 40.588417-4.361331 79.853699-2.823302 81.908498-2.560312l2.938935 0.376577c41.683355 1.99647 85.545328 8.599865 127.442554 19.184945 1.182942-0.800225 2.273786-1.775436 3.318582-2.961448 4.755304-5.376451 6.16542-8.925277 8.725732-15.369036 1.487887-3.744277 3.175319-7.988951 5.809309-13.272281 1.182942-2.371 2.353604-4.756327 3.524267-7.142677 5.075599-10.343579 10.323113-21.040199 16.607236-30.65723 6.362918-9.7869 15.454994-15.158235 25.6461-15.158235 0.229221 0 0.457418 0.00307 0.688685 0.008186 12.58155 0.296759 24.777313 8.981559 33.460066 23.828708 7.368828 12.717649 12.741185 27.842115 16.45067 46.284139 3.211135 15.915481 6.281053 32.084743 9.249665 47.720861l2.209318 11.650341 78.437443-10.936073c30.692023-4.343935 60.159148 16.291035 65.671699 45.995567 2.691295 14.410198-0.50756 28.885887-9.010211 40.74396-8.786107 12.254092-22.084994 20.212344-37.44789 22.410406l-64.12753 8.93551c4.16588 15.512299 11.015891 49.354058 16.381086 70.542636l-25.792433 6.53074c-6.915503-27.312042-14.929014-65.434292-19.785625-83.047438l-5.605671-16.038278 95.210455-13.267165c8.066723-1.154289 15.025205-5.265934 19.544125-11.568477 4.237511-5.90857 5.825682-13.143345 4.475941-20.37198-2.950192-15.903202-19.022239-26.888394-35.81367-24.517393l-103.548354 14.437827-2.365884-12.437264c-0.783853-4.114714-1.562589-8.229428-2.343371-12.348236l-2.228761-11.750625c-2.955308-15.562441-6.009877-31.655977-9.191336-47.429219-3.174296-15.773242-7.41897-27.894304-13.363356-38.152948-4.498454-7.691169-9.103332-10.568706-11.094686-10.615779-0.008186 0-0.01535 0-0.022513 0-1.027399 0-2.468215 1.654686-3.394307 3.079128-5.408173 8.276501-10.073426 17.784038-15.012925 27.850301-1.196245 2.438539-2.39249 4.876054-3.599991 7.29515-2.13257 4.278443-3.536546 7.809873-4.89345 11.225669-2.924609 7.359618-5.687536 14.310937-13.509688 23.155373-4.754281 5.389754-10.490935 9.394974-17.038048 11.891841l-3.978614 1.517563-4.120854-1.075495c-42.87039-11.18576-88.047312-18.019399-130.645502-19.764136l-9.142218-0.37453-0.064468-0.194428c-13.271258-0.251733-39.683814-0.212848-67.723428 2.800789-28.858258 3.087315-55.373145 8.286734-81.068364 15.896038l-0.772596 0.218988c-0.89437 0.251733-1.794879 0.503467-2.673899 0.769526l-2.37407 0.719384-2.474354-0.185218c-18.029632-1.351787-26.935466-9.259898-32.066323-15.09172-7.772011-8.837272-10.533914-15.774265-13.458523-23.11751-1.362021-3.418866-2.769067-6.954389-4.90573-11.237949-1.291412-2.579755-2.573615-5.194302-3.855818-7.806803-4.842285-9.872858-9.417487-19.199271-14.734586-27.26497-1.270946-1.956561-2.601244-3.164063-3.450589-3.164063-0.007163 0-0.014326 0-0.021489 0-1.982144 0.048095-6.561439 2.919493-11.0558 10.632151-5.882987 10.134825-10.143011 22.270213-13.394055 38.170345-3.097548 15.432481-6.319939 32.067346-10.129708 52.305273-1.391696 7.478322-2.818185 14.994506-4.246721 22.51069l-2.364861 12.438287-106.955964-14.898315c-16.798595-2.38021-32.818453 8.607028-35.751249 24.487717-1.37123 7.258311 0.204661 14.476713 4.426823 20.38119 4.51585 6.313799 11.468193 10.43056 19.576871 11.593036l99.923804 13.919011-3.76986 14.467503C225.889727 393.060097 219.602533 433.632141 212.056674 462.956004z" p-id="6195" fill="#d4237a"></path><path d="M509.031389 942.023964c-80.44517 0-157.242254-10.971889-222.088144-31.728632-64.294328-20.580734-110.589724-48.714492-133.929292-81.384565-23.36822-28.785603-35.718503-62.735833-35.718503-98.207719 0-17.817808 3.172249-35.43607 9.429767-52.382021 1.589195-6.492878 3.406586-13.745049 5.54632-22.13616 1.164522-4.950755 2.38942-10.108219 3.666506-15.445784l25.875321 6.193049c-1.279133 5.346775-2.506077 10.511401-3.672646 15.467273l-0.059352 0.240477c-2.214435 8.680706-4.076852 16.123212-5.696746 22.750143l-0.188288 0.772596-0.279363 0.743944c-5.319146 14.178931-8.016581 28.915563-8.016581 43.796482 0 29.413913 10.377348 57.676607 30.008454 81.732489l0.549515 0.722454c19.608593 27.683503 62.436004 53.181223 120.594589 71.797209 62.257949 19.928888 136.249127 30.462802 213.977419 30.462802 122.392538 0 237.849106-27.234271 301.311487-71.076802l0.337691-0.226151c20.311605-13.132088 37.121456-30.384008 48.614208-49.889247 11.919471-20.231787 17.96414-42.084491 17.96414-64.954361 0-10.363022-1.335415-20.828374-3.967358-31.106462l-0.261966-1.187035c-0.085958-0.413416-0.168846-0.823761-0.264013-1.218758-0.297782-1.255597-0.947582-4.027733-1.907443-8.124028-1.991354-8.500605-5.326309-22.730701-9.577123-40.741913l25.894763-6.112208c4.254907 18.029632 7.593955 32.275077 9.587356 40.782845 0.952698 4.064572 1.597381 6.813173 1.885953 8.033977 0.148379 0.6191 0.288572 1.286296 0.428765 1.959631l0.063445 0.297782c3.134387 12.340049 4.724605 24.927739 4.724605 37.417191 0 27.293623-7.484462 54.425563-21.645996 78.459956-13.549597 22.99676-33.227776 43.26027-56.919361 58.614979-32.822546 22.630417-78.786391 41.586141-132.935662 54.819536C636.535341 934.811702 573.140499 942.023964 509.031389 942.023964z" p-id="6196" fill="#d4237a"></path><path d="M467.366454 671.945829l31.758308 0L499.124761 502.420831 658.337903 502.420831l0 167.874405 31.758308 0 0-197.569728L576.25442 472.725508l13.198603-55.682183 119.202892 0L708.655915 387.344932 462.829114 387.344932l0 29.698392 93.216032 0-11.549034 55.682183-77.129658 0L467.366454 671.945829zM301.556057 427.355181l66.407456 0 0 273.875624c0 12.647041-6.601348 18.97312-19.799952 18.97312-13.475919 0-26.536376-1.514493-39.183418-4.53734 3.022847 11.82328 5.221932 24.059975 6.598278 36.709063 8.523117 0.549515 19.799952 0.823761 33.822316 0.823761 33.822316 0 50.734498-16.363689 50.734498-49.081858L400.135236 427.355181l54.856375 0 0-30.111808L301.556057 397.243373 301.556057 427.355181zM562.232055 568.828286c0 50.046836-9.485025 87.441515-28.461215 112.191198-21.446451 26.39823-58.156538 47.02092-110.125143 61.867046 7.970532 10.725272 14.57188 20.623713 19.796882 29.698392 56.095599-17.600867 95.553263-42.070164 118.376061-73.41915 3.300162-4.39817 6.323009-9.345856 9.074679-14.849196 40.423665 27.224038 79.054497 56.095599 115.90273 86.617753l23.097044-27.634384c-38.223556-28.597315-80.56899-57.746192-127.037325-87.441515 7.424086-24.198122 11.135618-53.483098 11.135618-87.85493l0-45.37135-31.758308 0L562.233078 568.828286z" p-id="6197" fill="#d4237a"></path></svg>